# xmcd
#
# Track frame offsets:
#	150
#	22225
#	46898
#	69662
#	85886
#	106961
#	127068
#	145471
#	166417
#	187754
#
# Disc length: 2781 seconds
#
# Revision: 1
# Processed by: cddbd v1.5.2PL0 Copyright (c) Steve Scherf et al.
# Submitted via: EZCDAudioConverter 8.0.2.1
#
DISCID=8c0adb0a
DTITLE=Phạm Trưởng - Trang Giấy Trắng, Lại Một Đêm
DYEAR=2015
DGENRE=World Pop
TTITLE0=Trang Giấy Trắng
TTITLE1=Hai ba năm
TTITLE2=Lại Một Đêm
TTITLE3=Đôi khi muốn
TTITLE4=Biết anh sai
TTITLE5=Không được khóc
TTITLE6=Nắng và mưa
TTITLE7=Em về đâu
TTITLE8=Yêu không dám nói
TTITLE9=Trang Giấy Trắng (Remix)
EXTD=
EXTT0=
EXTT1=
EXTT2=
EXTT3=
EXTT4=
EXTT5=
EXTT6=
EXTT7=
EXTT8=
EXTT9=
PLAYORDER=
